<?xml version="1.0" encoding="UTF-8"?>
<svg version="1.1" xmlns="http://www.w3.org/2000/svg" width="1000" height="1000">
<path d="M0 0 C1.23270126 -0.00701431 2.46540253 -0.01402863 3.73545837 -0.02125549 C7.68954127 -0.03865929 11.64354321 -0.04568904 15.59765625 -0.046875 C16.2709623 -0.04731686 16.94426834 -0.04775871 17.6379776 -0.04821396 C37.48166306 -0.05504578 57.00016882 0.21976042 76.66015625 3.203125 C77.82224609 3.36409668 78.98433594 3.52506836 80.18164062 3.69091797 C122.19633189 9.54127827 163.02745124 21.77725217 201.66015625 39.203125 C202.51174316 39.58146484 203.36333008 39.95980469 204.24072266 40.34960938 C217.86682234 46.42747726 230.79480054 53.66438105 243.66015625 61.203125 C244.48467285 61.68571777 245.30918945 62.16831055 246.15869141 62.66552734 C257.40225806 69.28908622 268.12657124 76.50560054 278.66015625 84.203125 C279.68520264 84.94780029 279.68520264 84.94780029 280.73095703 85.70751953 C293.22074134 94.80743118 304.89036416 104.68948503 316.3203125 115.08203125 C317.85898695 116.47685634 319.40826236 117.86009128 320.96875 119.23046875 C331.50717281 128.52296965 341.59694105 138.46082993 350.66015625 149.203125 C351.64140596 150.32321443 352.62469447 151.4415192 353.609375 152.55859375 C360.62784123 160.53865002 367.3357791 168.66035806 373.66015625 177.203125 C374.15483398 177.86650879 374.64951172 178.52989258 375.15917969 179.21337891 C388.41744751 197.04472926 399.86889544 215.79432689 410.66015625 235.203125 C411.06331055 235.92145508 411.46646484 236.63978516 411.88183594 237.37988281 C436.12380885 280.75916767 450.63306943 329.64285937 458.41015625 378.515625 C458.60891357 379.75280273 458.8076709 380.98998047 459.01245117 382.26464844 C462.05742311 402.25469994 463.00980557 422.0652127 462.97583008 442.27685547 C462.97268259 446.1705361 462.99618859 450.06344438 463.02148438 453.95703125 C463.11789629 492.21659472 457.11638419 529.23505237 447.55078125 566.1875 C447.374935 566.86934357 447.19908875 567.55118713 447.01791382 568.25369263 C445.7818539 572.9597297 445.7818539 572.9597297 444.66015625 575.203125 C450.60015625 575.533125 456.54015625 575.863125 462.66015625 576.203125 C461.53521873 582.95275012 461.53521873 582.95275012 460.01220703 586.33276367 C459.6724585 587.0961203 459.33270996 587.85947693 458.98266602 588.64596558 C458.61069092 589.46275787 458.23871582 590.27955017 457.85546875 591.12109375 C457.26922729 592.43111862 457.26922729 592.43111862 456.67114258 593.76760864 C455.38206787 596.64479988 454.08349402 599.51760345 452.78515625 602.390625 C451.87924115 604.40938856 450.97414229 606.42851859 450.06982422 608.44799805 C448.19735358 612.62883385 446.32214635 616.80842596 444.4453125 620.98730469 C440.58766511 629.58611438 436.77675668 638.20548673 432.97155762 646.8276062 C431.79084628 649.50273314 430.60889926 652.17731141 429.42675781 654.85180664 C425.73089829 663.2174189 422.04903407 671.58888865 418.39453125 679.97265625 C417.89643448 681.11469261 417.89643448 681.11469261 417.38827515 682.27980042 C415.84144219 685.8273574 414.29735215 689.37606203 412.75830078 692.92700195 C412.22304402 694.15709089 411.68772884 695.38715441 411.15234375 696.6171875 C410.46180908 698.20974365 410.46180908 698.20974365 409.75732422 699.83447266 C408.66015625 702.203125 408.66015625 702.203125 407.66015625 703.203125 C400.12606328 703.13994602 392.87888288 701.17525135 385.66015625 699.203125 C384.94472656 700.2446875 384.22929688 701.28625 383.4921875 702.359375 C376.32560234 712.70394146 368.74911947 722.56595161 360.66015625 732.203125 C359.91016357 733.1017627 359.91016357 733.1017627 359.14501953 734.01855469 C345.85587027 749.90594513 331.75267483 765.85278819 315.9296875 779.27734375 C314.03362296 780.88622467 312.16220942 782.51601987 310.296875 784.16015625 C302.31875138 791.17517002 294.19994058 797.88095593 285.66015625 804.203125 C284.99677246 804.69780273 284.33338867 805.19248047 283.64990234 805.70214844 C265.81855199 818.96041626 247.06895436 830.41186419 227.66015625 841.203125 C226.94182617 841.6062793 226.22349609 842.00943359 225.48339844 842.42480469 C182.10411358 866.6667776 133.22042188 881.17603818 84.34765625 888.953125 C83.11047852 889.15188232 81.87330078 889.35063965 80.59863281 889.55541992 C59.48428851 892.77164905 38.56415541 893.57649256 17.22265625 893.515625 C15.88394177 893.5137017 14.54522716 893.51186118 13.20651245 893.51010132 C-6.14168225 893.47312779 -25.18051261 893.09366289 -44.33984375 890.203125 C-45.51708008 890.03151855 -46.69431641 889.85991211 -47.90722656 889.68310547 C-92.17408305 883.07320256 -134.93345437 870.49007503 -175.33984375 851.203125 C-176.74266602 850.53458496 -176.74266602 850.53458496 -178.17382812 849.85253906 C-198.44930132 840.11576766 -217.87720369 829.06037959 -236.33984375 816.203125 C-236.92137207 815.80029297 -237.50290039 815.39746094 -238.10205078 814.98242188 C-255.47402203 802.90672498 -271.72601743 789.4676083 -287.33984375 775.203125 C-288.32923153 774.30707569 -289.31882388 773.41125223 -290.30859375 772.515625 C-298.42406881 765.15182076 -306.3414672 757.67622911 -313.4765625 749.34375 C-315.62871152 746.87126014 -317.85965094 744.48041143 -320.08984375 742.078125 C-325.37324218 736.28239702 -330.20070878 730.18690637 -334.97851562 723.97167969 C-336.31631325 722.2336944 -337.66279767 720.50279803 -339.01171875 718.7734375 C-343.98272403 712.38227804 -348.77782646 705.89509076 -353.33984375 699.203125 C-354.50902344 699.491875 -355.67820312 699.780625 -356.8828125 700.078125 C-358.43091734 700.45342314 -359.97909848 700.8284066 -361.52734375 701.203125 C-362.29626953 701.39390625 -363.06519531 701.5846875 -363.85742188 701.78125 C-364.60830078 701.96171875 -365.35917969 702.1421875 -366.1328125 702.328125 C-366.81883545 702.49570312 -367.5048584 702.66328125 -368.21166992 702.8359375 C-370.61970156 703.25141066 -372.90087802 703.2627483 -375.33984375 703.203125 C-380.0963157 694.04717149 -384.28451981 684.69007694 -388.39910889 675.23345947 C-389.96082122 671.64443584 -391.52969234 668.05855533 -393.09814453 664.47247314 C-393.92269503 662.58716085 -394.74691016 660.70170183 -395.57080078 658.81610107 C-399.69071639 649.38982576 -403.84319586 639.97804835 -408.00317383 630.56939697 C-409.2069266 627.84603669 -410.40925882 625.12205293 -411.61132812 622.39794922 C-415.11401864 614.46474649 -418.62975112 606.53836438 -422.203125 598.63671875 C-422.7782722 597.36056599 -423.35330921 596.08436355 -423.92822266 594.80810547 C-424.95918511 592.52424819 -425.99617281 590.24309656 -427.04052734 587.96533203 C-427.7049585 586.49169189 -427.7049585 586.49169189 -428.3828125 584.98828125 C-428.7646167 584.15176025 -429.1464209 583.31523926 -429.53979492 582.45336914 C-430.33984375 580.203125 -430.33984375 580.203125 -430.33984375 576.203125 C-424.39984375 575.873125 -418.45984375 575.543125 -412.33984375 575.203125 C-412.70335937 573.93984375 -413.066875 572.6765625 -413.44140625 571.375 C-419.06964339 551.48906608 -423.60742357 531.41178252 -426.58984375 510.953125 C-426.7408252 509.92751465 -426.89180664 508.9019043 -427.04736328 507.84521484 C-429.83836211 487.49641056 -430.71869308 467.16292626 -430.65234375 446.640625 C-430.65052094 445.46168671 -430.64869812 444.28274841 -430.64682007 443.06808472 C-430.59889386 424.59463829 -429.93857675 406.51447296 -427.33984375 388.203125 C-427.17355469 386.96836426 -427.00726563 385.73360352 -426.8359375 384.46142578 C-415.55619263 302.15062086 -380.88571506 223.77191657 -327.33984375 160.203125 C-326.91300293 159.69136719 -326.48616211 159.17960938 -326.04638672 158.65234375 C-313.53340198 143.6671616 -300.28031499 128.76805477 -285.44921875 116.03515625 C-283.16354829 114.05000913 -280.94282997 112.0027267 -278.71484375 109.953125 C-273.12054665 104.91229718 -267.24179296 100.29222788 -261.27880859 95.70068359 C-259.27736681 94.15487096 -257.28685318 92.59569058 -255.296875 91.03515625 C-231.03857686 72.11425181 -204.79501619 56.98844614 -177.33984375 43.203125 C-176.53450195 42.79578125 -175.72916016 42.3884375 -174.89941406 41.96875 C-122.11146106 15.44262341 -59.04294626 0.22566159 0 0 Z M-39.33984375 51.203125 C-41.29404633 51.47427917 -43.24847582 51.74380289 -45.203125 52.01171875 C-82.46219778 57.39585269 -119.41022771 69.00792365 -153.33984375 85.203125 C-154.35369141 85.68394531 -155.36753906 86.16476563 -156.41210938 86.66015625 C-189.5508481 102.48823688 -219.86410141 122.85117369 -247.33984375 147.203125 C-248.2628125 148.01394531 -249.18578125 148.82476562 -250.13671875 149.66015625 C-256.97507753 155.79343002 -263.50533814 162.2367902 -270.02734375 168.703125 C-270.90656494 169.56929443 -271.78578613 170.43546387 -272.69165039 171.32788086 C-277.92861872 176.55795779 -282.7458667 181.97074259 -287.37231445 187.74755859 C-288.93578294 189.69883866 -290.52168801 191.60743401 -292.16796875 193.48828125 C-347.76658152 257.24733557 -382.15563365 347.78294135 -382.54296875 432.51171875 C-382.54998306 433.54844223 -382.55699738 434.58516571 -382.56422424 435.65330505 C-382.5816283 438.98245649 -382.58807727 442.31142973 -382.58984375 445.640625 C-382.59051849 446.78106262 -382.59119324 447.92150024 -382.59188843 449.09649658 C-382.57537769 466.67348611 -382.00790856 483.80393643 -379.33984375 501.203125 C-379.07445801 502.98952393 -379.07445801 502.98952393 -378.80371094 504.81201172 C-376.27049576 521.52729428 -372.75324216 537.88657851 -368.33984375 554.203125 C-350.63352104 547.6879464 -331.99993544 528.59692757 -320.06640625 514.24609375 C-318.23991051 512.0848782 -316.33077163 510.01132424 -314.40405273 507.93945312 C-308.78781403 501.89544662 -303.46009326 495.67560658 -298.33984375 489.203125 C-297.82550781 488.55601562 -297.31117188 487.90890625 -296.78125 487.2421875 C-288.25195526 476.48700291 -280.09140523 465.53173337 -272.33984375 454.203125 C-271.85306152 453.49220703 -271.3662793 452.78128906 -270.86474609 452.04882812 C-252.65322347 425.33459461 -236.59700555 397.53940645 -222.71401978 368.35565186 C-208.01791975 337.50484382 -189.8701027 308.31198694 -167.92041016 282.09228516 C-166.40933629 280.28618544 -164.91135482 278.46986915 -163.4140625 276.65234375 C-152.57339069 263.62150742 -140.69891109 251.6456326 -127.33984375 241.203125 C-125.58933247 239.72456344 -123.83934607 238.24538027 -122.08984375 236.765625 C-104.02789904 222.06167565 -83.10942509 210.36496804 -61.33984375 202.203125 C-60.61265137 201.92774902 -59.88545898 201.65237305 -59.13623047 201.36865234 C-35.06470302 192.40464246 -10.10684366 188.77020218 15.47265625 188.828125 C16.41969421 188.82900116 17.36673218 188.82987732 18.34246826 188.83078003 C49.62070302 188.92599385 79.22332966 194.87984904 107.66015625 208.203125 C108.34335937 208.51862305 109.0265625 208.83412109 109.73046875 209.15917969 C131.54583977 219.31933076 151.05140673 232.8335097 168.66015625 249.203125 C169.92768927 250.29031795 171.19846256 251.37374605 172.47265625 252.453125 C181.184787 260.07183043 189.2603472 268.34687835 196.4375 277.42578125 C198.39380688 279.87030531 200.42144674 282.22899845 202.48754883 284.58056641 C219.64771879 304.26347541 233.36811444 327.24627811 245.66015625 350.203125 C246.32313721 351.43651611 246.32313721 351.43651611 246.99951172 352.69482422 C252.09891591 362.21117772 256.97982645 371.78946283 261.53515625 381.578125 C282.21278487 425.78718535 311.40490476 467.68054903 343.66015625 504.203125 C344.41554688 505.0590625 345.1709375 505.915 345.94921875 506.796875 C348.16844933 509.28241324 350.4100586 511.74549407 352.66015625 514.203125 C353.16192383 514.75532715 353.66369141 515.3075293 354.18066406 515.87646484 C360.38926299 522.70297246 366.55073268 529.30167429 373.66015625 535.203125 C374.72091294 536.13426047 375.77928311 537.06811807 376.8359375 538.00390625 C384.09923935 544.39948188 391.42707918 550.07630045 399.66015625 555.203125 C402.67988483 549.76434013 403.64348343 543.58774282 405.03515625 537.578125 C405.26759537 536.58004318 405.26759537 536.58004318 405.50473022 535.5617981 C407.64739617 526.30301822 409.52340017 517.03704305 410.97265625 507.640625 C411.11944824 506.69429199 411.26624023 505.74795898 411.41748047 504.77294922 C411.87935379 501.58726289 412.27992934 498.39964575 412.66015625 495.203125 C412.74629181 494.49182434 412.83242737 493.78052368 412.9211731 493.04766846 C414.72291261 477.76422149 415.02068298 462.58075677 414.97265625 447.203125 C414.97083344 445.99079193 414.96901062 444.77845886 414.96713257 443.52938843 C414.92166562 425.56135546 414.4599782 407.98034095 411.66015625 390.203125 C411.49386719 389.08760254 411.32757812 387.97208008 411.15625 386.82275391 C402.87864025 332.27483852 383.15521975 279.82788747 353.66015625 233.203125 C353.28938965 232.61644043 352.91862305 232.02975586 352.53662109 231.42529297 C337.53201767 207.89583594 319.67225739 185.63795399 299.66015625 166.203125 C296.99092325 163.55105749 294.34254126 160.88059269 291.71484375 158.1875 C285.94136499 152.29534468 280.12124744 146.68714805 273.640625 141.5625 C271.42562534 139.80907956 269.24934785 138.03370309 267.0859375 136.21875 C213.34870559 91.3446896 146.18754536 62.79007955 77.28515625 51.953125 C75.8455957 51.72641113 75.8455957 51.72641113 74.37695312 51.49511719 C71.14235034 51.01715553 67.90595558 50.59850689 64.66015625 50.203125 C63.94598541 50.11592194 63.23181458 50.02871887 62.4960022 49.93887329 C47.19635693 48.12942185 31.99175533 47.84378844 16.59765625 47.890625 C14.77873367 47.89286072 14.77873367 47.89286072 12.92306519 47.8951416 C-4.71519459 47.93412343 -21.89348216 48.46381075 -39.33984375 51.203125 Z M-32.33984375 356.203125 C-33.29117187 357.03457031 -34.2425 357.86601562 -35.22265625 358.72265625 C-47.60840738 369.68139322 -58.4554363 381.96761291 -68.33984375 395.203125 C-68.84483398 395.87827148 -69.34982422 396.55341797 -69.87011719 397.24902344 C-91.07433466 425.76054047 -108.87589248 456.53700739 -125.49267578 487.89746094 C-137.01665578 509.59926846 -149.86957978 530.34197837 -164.33984375 550.203125 C-164.76845703 550.79222656 -165.19707031 551.38132812 -165.63867188 551.98828125 C-168.15689384 555.431649 -170.73311277 558.82643433 -173.33984375 562.203125 C-173.75266602 562.74066406 -174.16548828 563.27820313 -174.59082031 563.83203125 C-192.58706628 587.2231548 -212.65639522 611.06513616 -235.953125 629.3125 C-238.24374777 631.12700314 -240.38082987 633.03422757 -242.52734375 635.015625 C-261.63278459 652.09932607 -284.46173216 666.7640692 -307.33984375 678.203125 C-305.85401828 682.70257388 -303.3449667 686.06458395 -300.40234375 689.703125 C-299.91507813 690.31333496 -299.4278125 690.92354492 -298.92578125 691.55224609 C-287.29519946 706.04188799 -274.92234991 719.69539811 -261.83984375 732.890625 C-260.97375488 733.76976562 -260.10766602 734.64890625 -259.21533203 735.5546875 C-253.98517177 740.79173862 -248.57231814 745.60907428 -242.79541016 750.2355957 C-240.84413009 751.79906419 -238.93553474 753.38496926 -237.0546875 755.03125 C-173.54176603 810.41523215 -83.55164062 845.05262445 0.84375 845.40625 C1.96948425 845.41326431 3.09521851 845.42027863 4.25506592 845.42750549 C7.86930385 845.44491605 11.48337792 845.45135807 15.09765625 845.453125 C16.33246735 845.45379974 17.56727844 845.45447449 18.83950806 845.45516968 C36.98567262 845.43939976 54.7060758 845.03080222 72.66015625 842.203125 C73.77567871 842.03683594 74.89120117 841.87054687 76.04052734 841.69921875 C158.50008705 829.1860356 238.33827143 790.25734303 296.66015625 730.203125 C299.31222376 727.533892 301.98268856 724.88551001 304.67578125 722.2578125 C311.49766462 715.57333176 317.73242651 708.70450286 323.66015625 701.203125 C324.76964299 699.84561538 325.88181993 698.4903018 326.99609375 697.13671875 C327.58068359 696.42491455 328.16527344 695.71311035 328.76757812 694.97973633 C329.92087321 693.57587036 331.07574933 692.17330131 332.23242188 690.7722168 C337.40697313 685.11056694 337.40697313 685.11056694 339.66015625 678.203125 C339.16427002 677.94321777 338.66838379 677.68331055 338.1574707 677.41552734 C311.43908029 663.31203194 286.55430862 645.93648321 264.2421875 625.5390625 C262.81918708 624.25168844 261.38964969 622.97101637 259.93334961 621.72143555 C254.2283738 616.82132892 248.90195033 611.59390233 243.59765625 606.265625 C242.73849609 605.41033203 241.87933594 604.55503906 240.99414062 603.67382812 C236.0068279 598.67889537 231.2383595 593.57388744 226.66015625 588.203125 C225.67540011 587.07341531 224.68975476 585.94447999 223.703125 584.81640625 C197.18715253 554.25376442 175.04729667 520.08467089 156.15911865 484.36578369 C150.1717971 473.04521773 143.84144606 461.96326617 137.29492188 450.95800781 C135.73263961 448.32527289 134.18674763 445.68358769 132.64453125 443.0390625 C122.70208522 426.09321574 111.76702709 409.686414 99.66015625 394.203125 C99.03367187 393.39617187 98.4071875 392.58921875 97.76171875 391.7578125 C79.32840885 368.35879463 55.0119219 338.98965411 23.66015625 334.203125 C1.60625079 332.59968253 -16.2199441 341.73348214 -32.33984375 356.203125 Z " fill="#7826E7" transform="translate(483.33984375,59.796875)"/>
</svg>
